<?xml version="1.0" encoding="UTF-8" standalone="no"?>
<!-- Created with Inkscape (http://www.inkscape.org/) -->

<svg
   width="195.9669"
   height="149.15012"
   viewBox="0 0 51.849575 39.462634"
   version="1.1"
   id="svg6590"
   inkscape:version="1.3 (0e150ed6c4, 2023-07-21)"
   sodipodi:docname="logo.svg"
   xmlns:inkscape="http://www.inkscape.org/namespaces/inkscape"
   xmlns:sodipodi="http://sodipodi.sourceforge.net/DTD/sodipodi-0.dtd"
   xmlns="http://www.w3.org/2000/svg"
   xmlns:svg="http://www.w3.org/2000/svg">
  <sodipodi:namedview
     id="namedview6592"
     pagecolor="#ffffff"
     bordercolor="#666666"
     borderopacity="1.0"
     inkscape:pageshadow="2"
     inkscape:pageopacity="0.0"
     inkscape:pagecheckerboard="true"
     inkscape:document-units="mm"
     showgrid="false"
     fit-margin-top="1"
     fit-margin-left="1"
     fit-margin-right="1"
     fit-margin-bottom="1"
     lock-margins="true"
     inkscape:zoom="3.0075196"
     inkscape:cx="108.39497"
     inkscape:cy="103.57372"
     inkscape:window-width="2880"
     inkscape:window-height="1526"
     inkscape:window-x="-11"
     inkscape:window-y="-11"
     inkscape:window-maximized="1"
     inkscape:current-layer="layer1"
     width="200px"
     units="px"
     inkscape:showpageshadow="2"
     inkscape:deskcolor="#d1d1d1" />
  <defs
     id="defs6587" />
  <g
     inkscape:label="Camada 1"
     inkscape:groupmode="layer"
     id="layer1"
     transform="translate(-82.481603,-149.2092)">
    <path
       style="fill:#ffffff;fill-opacity:1;stroke:none;stroke-width:0.264583;stroke-opacity:1"
       d="m 100.12907,187.98354 c 3.35361,-1.05087 5.48626,-2.28418 7.42328,-4.29288 1.68266,-1.74493 1.70633,-1.79016 2.01038,-3.84133 0.19637,-1.32471 0.64193,-2.77054 1.2316,-3.99651 0.94256,-1.95967 1.21534,-3.78176 0.59319,-3.96238 -0.18191,-0.0528 -1.69995,-0.28002 -3.37344,-0.50492 -1.8557,-0.24939 -3.4516,-0.62156 -4.09084,-0.95401 -1.27647,-0.66386 -3.61429,-0.74703 -4.112827,-0.14632 -0.27887,0.33601 -0.20066,0.44422 0.496767,0.68734 0.45525,0.1587 0.82773,0.47395 0.82773,0.70055 0,0.35195 -0.0764,0.34285 -0.5242,-0.0624 -0.37883,-0.34283 -0.617297,-0.39726 -0.859897,-0.19624 -0.45372,0.37596 -1.52631,-0.49524 -1.52631,-1.23972 0,-0.4871 -0.15746,-0.5529 -1.32292,-0.5529 -1.24682,0 -1.76918,0.37453 -0.95702,0.68618 0.30007,0.11515 0.27811,0.31596 -0.12205,1.11617 -0.83869,1.67713 -2.09593,5.01586 -2.09593,5.56594 0,0.72878 0.27075,1.36296 0.58189,1.36296 0.14338,0 0.57311,-0.24576 0.95497,-0.54613 0.56972,-0.44814 0.91624,-0.51559 1.93143,-0.37597 0.77888,0.10713 1.3025,0.0644 1.41358,-0.11533 0.25541,-0.41326 1.20355,-0.35103 1.20355,0.079 0,0.80033 -2.34326,1.74004 -3.65552,1.46595 -0.70167,-0.14655 -0.98191,-0.0711 -1.3993,0.37696 -1.38604,1.48773 -0.68185,2.90826 1.30687,2.63628 0.92521,-0.12653 1.25758,-0.32787 1.7198,-1.04178 0.31511,-0.48671 0.67088,-0.8864 0.79058,-0.8882 0.1197,-0.002 -0.0291,0.31044 -0.33073,0.69387 -0.72734,0.92466 -0.69466,1.06674 0.24538,1.06674 0.47431,0 0.79375,-0.13822 0.79375,-0.34346 0,-0.50293 0.978517,-0.97843 1.149137,-0.55841 0.10187,0.25079 0.19494,0.2406 0.39295,-0.043 0.21121,-0.30249 0.38937,-0.23145 0.95788,0.38198 0.39246,0.42348 0.66431,0.99192 0.62057,1.29766 -0.067,0.46805 -0.23961,0.53363 -1.23569,0.46936 -0.63682,-0.0411 -1.351197,-0.17627 -1.587497,-0.3004 -0.2363,-0.12414 -1.17914,-0.3112 -2.0952,-0.41569 l -1.66555,-0.18997 0.2048,0.75497 c 0.11264,0.41523 0.18891,1.61306 0.1695,2.66185 -0.0308,1.66391 0.0442,1.99262 0.58822,2.57969 0.34294,0.37004 0.74213,0.67279 0.88709,0.67279 0.14495,0 1.25197,-0.30972 2.460027,-0.68827 z m 16.13077,-8.24141 c 2.06934,-1.86055 3.01407,-3.97651 2.44156,-5.46847 -0.26806,-0.69854 -0.54882,-0.46835 -0.42852,0.35134 0.0622,0.42342 -0.004,0.97919 -0.14735,1.23506 -0.21392,0.38224 -0.29357,0.26855 -0.44665,-0.63756 -0.20355,-1.20481 -0.29578,-1.26837 -1.03178,-0.711 -0.35215,0.26669 -0.44765,0.56397 -0.33076,1.02967 0.12006,0.47837 -0.0202,0.87399 -0.52061,1.46873 -0.91321,1.08528 -1.26944,1.04579 -1.05139,-0.11654 0.23508,-1.25307 0.0288,-1.48223 -0.91178,-1.013 -0.64804,0.32328 -0.7914,0.55904 -0.7914,1.30146 0,0.49866 0.11906,0.90666 0.26459,0.90666 0.14552,0 0.26458,-0.19844 0.26458,-0.44097 0,-0.24253 0.0752,-0.36579 0.16707,-0.2739 0.0919,0.0919 0.15366,0.76191 0.13728,1.48895 -0.0224,0.99581 0.0832,1.38772 0.42825,1.58878 0.68042,0.39647 0.75869,0.3681 1.95691,-0.70921 z m 18.06196,-11.14901 c 0.0799,-0.12922 -0.35959,-0.30956 -0.97657,-0.40075 -1.76081,-0.26026 -7.5526,-0.6746 -9.5223,-0.68122 l -1.78593,-0.006 -0.006,-4.16719 c -0.008,-5.42211 -0.11441,-5.67391 -3.48143,-8.20462 -4.02572,-3.0258 -8.38179,-5.88218 -9.01864,-5.91374 -1.42392,-0.0706 -2.09849,0.18014 -5.22121,1.94041 -7.995677,4.50715 -8.720047,5.40632 -8.936667,11.09313 -0.0701,1.84082 -0.2198,3.49632 -0.33262,3.67888 -0.30979,0.50125 -2.79704,0.81676 -7.92862,1.00574 -2.79674,0.10299 -4.63021,0.27528 -4.63021,0.4351 0,0.17227 7.10784,0.3381 20.372907,0.4753 16.22226,0.16779 29.24299,0.56217 31.13907,0.94317 0.10056,0.0202 0.24817,-0.069 0.32803,-0.19821 z m -37.455987,-2.02437 c 1.11842,-0.48557 1.23984,-0.48405 0.82952,0.0104 -0.18116,0.21828 -0.64222,0.39221 -1.02459,0.38652 -0.66577,-0.01 -0.65751,-0.0267 0.19507,-0.39688 z m 15.381597,-0.12193 c -0.3638,-0.11651 -1.13175,-0.22371 -1.70656,-0.23821 -0.83608,-0.0211 -0.97896,-0.0925 -0.71438,-0.35711 0.18191,-0.1819 0.71013,-0.33073 1.17384,-0.33073 0.67081,0 0.9188,-0.15795 1.21357,-0.77296 0.48013,-1.00176 0.18042,-1.47113 -1.24214,-1.94532 -0.60807,-0.20268 -1.10558,-0.53052 -1.10558,-0.72851 0,-0.27862 0.49868,-0.34922 2.20636,-0.31235 l 2.20637,0.0476 -0.47978,2.12034 c -0.26388,1.16619 -0.48284,2.26917 -0.48657,2.45107 -0.007,0.36674 -0.10721,0.37293 -1.06513,0.0661 z m -2.77812,-11.05664 c -0.9043,-0.68343 -1.3488,-1.22085 -1.4047,-1.69836 -0.11304,-0.96561 0.91045,-2.91298 1.47396,-2.80446 0.73612,0.14176 2.15205,5.50865 1.45209,5.50395 -0.10914,-7.4e-4 -0.79375,-0.45124 -1.52135,-1.00113 z"
       id="path4726"
       sodipodi:nodetypes="ssssssssssssssssssssssscssccssssssssscssssssssccssscssssssssscssccsssssssssccsscsscssssssscscccsssss" />
  </g>
</svg>
